<svg xmlns="http://www.w3.org/2000/svg" viewBox="0 0 600 900" width="600" height="900">
  <rect width="600" height="900" fill="#0e1412"/>
  <rect x="-654.2" y="306.9" width="200.9" height="85.4" fill="#5aaa9a" opacity="0.85"/>
  <rect x="-754.7" y="407.3" width="200.9" height="85.4" fill="#6abaa8" opacity="0.85"/>
  <rect x="-754.7" y="206.4" width="301.3" height="85.4" fill="#2a7a6a" opacity="0.85"/>
  <rect x="-754.7" y="106.0" width="301.3" height="85.4" fill="#4a9a8a" opacity="0.85"/>
  <rect x="-754.7" y="5.5" width="301.3" height="85.4" fill="#3a8a7a" opacity="0.85"/>
  <rect x="-352.9" y="306.9" width="200.9" height="85.4" fill="#3a8a7a" opacity="0.85"/>
  <rect x="-453.3" y="407.3" width="200.9" height="85.4" fill="#4a9a8a" opacity="0.85"/>
  <rect x="-453.3" y="206.4" width="301.3" height="85.4" fill="#4a8a78" opacity="0.85"/>
  <rect x="-453.3" y="106.0" width="301.3" height="85.4" fill="#7acab8" opacity="0.85"/>
  <rect x="-453.3" y="5.5" width="301.3" height="85.4" fill="#3a9a88" opacity="0.85"/>
  <rect x="-51.6" y="206.4" width="200.9" height="85.4" fill="#6abaa8" opacity="0.85"/>
  <rect x="-152.0" y="306.9" width="200.9" height="85.4" fill="#3a9a88" opacity="0.85"/>
  <rect x="-152.0" y="106.0" width="301.3" height="85.4" fill="#5aaa9a" opacity="0.85"/>
  <rect x="-152.0" y="5.5" width="301.3" height="85.4" fill="#2a7a6a" opacity="0.85"/>
  <rect x="-352.9" y="507.8" width="301.3" height="85.4" fill="#7acab8" opacity="0.85"/>
  <rect x="249.8" y="206.4" width="200.9" height="85.4" fill="#4a9a8a" opacity="0.85"/>
  <rect x="149.3" y="306.9" width="200.9" height="85.4" fill="#2a7a6a" opacity="0.85"/>
  <rect x="149.3" y="106.0" width="301.3" height="85.4" fill="#3a8a7a" opacity="0.85"/>
  <rect x="149.3" y="5.5" width="301.3" height="85.4" fill="#4a8a78" opacity="0.85"/>
  <rect x="-152.0" y="608.2" width="401.8" height="85.4" fill="#5aaa9a" opacity="0.85"/>
  <rect x="-654.2" y="708.6" width="602.7" height="85.4" fill="#6abaa8" opacity="0.85"/>
  <rect x="551.1" y="306.9" width="200.9" height="85.4" fill="#3a8a7a" opacity="0.85"/>
  <rect x="450.7" y="407.3" width="200.9" height="85.4" fill="#4a9a8a" opacity="0.85"/>
  <rect x="450.7" y="206.4" width="301.3" height="85.4" fill="#4a8a78" opacity="0.85"/>
  <rect x="450.7" y="106.0" width="301.3" height="85.4" fill="#7acab8" opacity="0.85"/>
  <rect x="450.7" y="5.5" width="301.3" height="85.4" fill="#3a9a88" opacity="0.85"/>
  <rect x="852.4" y="206.4" width="200.9" height="85.4" fill="#6abaa8" opacity="0.85"/>
  <rect x="752.0" y="306.9" width="200.9" height="85.4" fill="#3a9a88" opacity="0.85"/>
  <rect x="752.0" y="106.0" width="301.3" height="85.4" fill="#5aaa9a" opacity="0.85"/>
  <rect x="752.0" y="5.5" width="301.3" height="85.4" fill="#2a7a6a" opacity="0.85"/>
  <rect x="551.1" y="507.8" width="301.3" height="85.4" fill="#7acab8" opacity="0.85"/>
  <rect x="1153.8" y="206.4" width="200.9" height="85.4" fill="#4a9a8a" opacity="0.85"/>
  <rect x="1053.3" y="306.9" width="200.9" height="85.4" fill="#2a7a6a" opacity="0.85"/>
  <rect x="1053.3" y="106.0" width="301.3" height="85.4" fill="#3a8a7a" opacity="0.85"/>
  <rect x="1053.3" y="5.5" width="301.3" height="85.4" fill="#4a8a78" opacity="0.85"/>
  <rect x="752.0" y="608.2" width="401.8" height="85.4" fill="#5aaa9a" opacity="0.85"/>
  <rect x="-152.0" y="809.1" width="1004.4" height="85.4" fill="#6abaa8" opacity="0.85"/>
  <rect x="-546.2" y="198.9" width="85.4" height="200.9" fill="#5aaa9a" opacity="0.8"/>
  <rect x="-747.1" y="-2.0" width="85.4" height="502.2" fill="#6abaa8" opacity="0.8"/>
  <rect x="-244.9" y="198.9" width="85.4" height="200.9" fill="#3a8a7a" opacity="0.8"/>
  <rect x="-445.8" y="-2.0" width="85.4" height="502.2" fill="#4a9a8a" opacity="0.8"/>
  <rect x="56.4" y="98.4" width="85.4" height="200.9" fill="#6abaa8" opacity="0.8"/>
  <rect x="-44.0" y="-2.0" width="85.4" height="401.8" fill="#3a9a88" opacity="0.8"/>
  <rect x="-345.4" y="98.4" width="85.4" height="502.2" fill="#7acab8" opacity="0.8"/>
  <rect x="357.8" y="98.4" width="85.4" height="200.9" fill="#4a9a8a" opacity="0.8"/>
  <rect x="257.3" y="-2.0" width="85.4" height="401.8" fill="#2a7a6a" opacity="0.8"/>
  <rect x="156.9" y="-2.0" width="85.4" height="703.1" fill="#5aaa9a" opacity="0.8"/>
  <rect x="-646.7" y="98.4" width="85.4" height="703.1" fill="#6abaa8" opacity="0.8"/>
  <rect x="659.1" y="198.9" width="85.4" height="200.9" fill="#3a8a7a" opacity="0.8"/>
  <rect x="458.2" y="-2.0" width="85.4" height="502.2" fill="#4a9a8a" opacity="0.8"/>
  <rect x="960.4" y="98.4" width="85.4" height="200.9" fill="#6abaa8" opacity="0.8"/>
  <rect x="860.0" y="-2.0" width="85.4" height="401.8" fill="#3a9a88" opacity="0.8"/>
  <rect x="558.6" y="98.4" width="85.4" height="502.2" fill="#7acab8" opacity="0.8"/>
  <rect x="1261.8" y="98.4" width="85.4" height="200.9" fill="#4a9a8a" opacity="0.8"/>
  <rect x="1161.3" y="-2.0" width="85.4" height="401.8" fill="#2a7a6a" opacity="0.8"/>
  <rect x="1060.9" y="-2.0" width="85.4" height="703.1" fill="#5aaa9a" opacity="0.8"/>
  <rect x="-144.5" y="-2.0" width="85.4" height="904.0" fill="#6abaa8" opacity="0.8"/>
  <rect x="759.5" y="-2.0" width="85.4" height="904.0" fill="#6abaa8" opacity="0.8"/>
  <defs>
    <radialGradient id="vig" cx="50%" cy="50%" r="70%">
      <stop offset="0%" stop-color="#0e1412" stop-opacity="0"/>
      <stop offset="85%" stop-color="#0e1412" stop-opacity="0.3"/>
      <stop offset="100%" stop-color="#0e1412" stop-opacity="0.7"/>
    </radialGradient>
    <linearGradient id="botfade" x1="0" y1="0" x2="0" y2="1">
      <stop offset="0%" stop-color="#0e1412" stop-opacity="0"/>
      <stop offset="65%" stop-color="#0e1412" stop-opacity="0"/>
      <stop offset="78%" stop-color="#0e1412" stop-opacity="0.5"/>
      <stop offset="100%" stop-color="#0e1412" stop-opacity="0.85"/>
    </linearGradient>
  </defs>
  <rect width="600" height="900" fill="url(#vig)"/>
  <rect width="600" height="900" fill="url(#botfade)"/>

  <text x="300.0" y="700" text-anchor="middle"
        font-family="Georgia, 'Times New Roman', serif"
        font-size="68" font-weight="normal" fill="#f0ece6"
        letter-spacing="4">Thinking</text>
  <text x="300.0" y="780" text-anchor="middle"
        font-family="Georgia, 'Times New Roman', serif"
        font-size="68" font-weight="normal" fill="#f0ece6"
        letter-spacing="4">in R</text>
  <line x1="220.0" y1="805" x2="380.0" y2="805"
        stroke="#4a9a8a" stroke-width="0.5" opacity="0.5"/>
  <text x="300.0" y="845" text-anchor="middle"
        font-family="'Source Sans Pro', sans-serif"
        font-size="20" fill="#d0c8c0"
        letter-spacing="5">GILLES COLLING</text>
</svg>