<svg xmlns="http://www.w3.org/2000/svg" viewBox="0 0 500 530" font-family="'Helvetica Neue', Helvetica, Arial, sans-serif">
  <style>
    .box { fill: none; stroke: #111; stroke-width: 1.3; rx: 4; }
    .boxhl { fill: none; stroke: #111; stroke-width: 2.2; rx: 4; }
    .ttl { font-size: 15px; font-weight: bold; fill: #111; }
    .bd { font-size: 14px; font-family: 'Courier New', monospace; fill: #222; }
    .sep { stroke: #111; stroke-width: 0.6; }
    .cd { font-size: 13px; font-family: 'Courier New', monospace; fill: #111; }
    .cdb { font-size: 13px; font-family: 'Courier New', monospace; fill: #111; font-weight: bold; }
    .nt { font-size: 13px; fill: #555; font-style: italic; }
    .lb { font-size: 13px; fill: #888; font-style: italic; }
  </style>

  <!-- Code -->
  <text x="15" y="20" class="cd">x &lt;- 10;  f &lt;- function() x</text>
  <text x="15" y="38" class="cd">g &lt;- function() { x &lt;- 20; f() }</text>
  <text x="15" y="60" class="cdb">g()   # returns 10, not 20</text>

  <!-- emptyenv  y=80..110 -->
  <rect class="box" x="175" y="80" width="150" height="30"/>
  <text x="190" y="100" class="ttl">emptyenv()</text>

  <!-- arrow UP: base→empty  stem y=130→120, head y=120→110 -->
  <line x1="250" y1="130" x2="250" y2="120" stroke="#111" stroke-width="1.2"/>
  <polygon points="250,110 245,120 255,120" fill="#111"/>
  <text x="262" y="124" class="lb">parent</text>

  <!-- baseenv  y=130..178 -->
  <rect class="box" x="150" y="130" width="200" height="48"/>
  <text x="165" y="150" class="ttl">baseenv()</text>
  <line class="sep" x1="155" y1="157" x2="345" y2="157"/>
  <text x="165" y="172" class="bd">c, list, print, …</text>

  <!-- arrow UP: global→base  stem y=198→188, head y=188→178 -->
  <line x1="250" y1="198" x2="250" y2="188" stroke="#111" stroke-width="1.2"/>
  <polygon points="250,178 245,188 255,188" fill="#111"/>
  <text x="262" y="192" class="lb">parent</text>

  <!-- globalenv  y=198..300 -->
  <rect class="boxhl" x="105" y="198" width="290" height="102"/>
  <text x="120" y="220" class="ttl">globalenv()</text>
  <line class="sep" x1="110" y1="228" x2="390" y2="228"/>
  <text x="120" y="248" class="bd">x  ←  10</text>
  <text x="120" y="268" class="bd">f  ←  function() x</text>
  <text x="120" y="288" class="bd">g  ←  function() {…}</text>

  <!-- annotation -->
  <text x="400" y="248" class="nt" fill="#333">← f finds</text>
  <text x="400" y="263" class="nt" fill="#333">   x = 10 here</text>

  <!-- g's exec env  y=380..432 -->
  <rect class="box" x="15" y="380" width="190" height="52"/>
  <text x="30" y="400" class="ttl">g()'s exec env</text>
  <line class="sep" x1="20" y1="408" x2="200" y2="408"/>
  <text x="30" y="426" class="bd">x  ←  20</text>

  <!-- arrow UP from g: vertical y=380→340, horizontal x=110→185, vertical y=340→310, head 310→300 -->
  <line x1="110" y1="380" x2="110" y2="340" stroke="#111" stroke-width="1.2"/>
  <line x1="110" y1="340" x2="185" y2="340" stroke="#111" stroke-width="1.2"/>
  <line x1="185" y1="340" x2="185" y2="310" stroke="#111" stroke-width="1.2"/>
  <polygon points="185,300 180,310 190,310" fill="#111"/>
  <text x="80" y="336" class="lb">enclosing</text>

  <!-- f's exec env  y=380..432 -->
  <rect class="box" x="270" y="380" width="190" height="52"/>
  <text x="285" y="400" class="ttl">f()'s exec env</text>
  <line class="sep" x1="275" y1="408" x2="455" y2="408"/>
  <text x="285" y="426" class="bd" fill="#999">(empty)</text>

  <!-- arrow UP from f: vertical y=380→340, horizontal x=365→315, vertical y=340→310, head 310→300 -->
  <line x1="365" y1="380" x2="365" y2="340" stroke="#111" stroke-width="1.2"/>
  <line x1="365" y1="340" x2="315" y2="340" stroke="#111" stroke-width="1.2"/>
  <line x1="315" y1="340" x2="315" y2="310" stroke="#111" stroke-width="1.2"/>
  <polygon points="315,300 310,310 320,310" fill="#111"/>
  <text x="370" y="336" class="nt">enclosing</text>
  <text x="370" y="351" class="nt">(where f was defined)</text>

  <!-- bottom note -->
  <text x="15" y="465" class="nt" fill="#999">x = 20 lives here, but f doesn't</text>
  <text x="15" y="480" class="nt" fill="#999">look in g's env — lexical scoping</text>
</svg>