<svg xmlns="http://www.w3.org/2000/svg" viewBox="0 0 500 440" font-family="'Helvetica Neue', Helvetica, Arial, sans-serif">
  <style>
    .frame { fill: none; stroke: #111; stroke-width: 1.3; rx: 4; }
    .base { fill: #f4f4f4; stroke: #111; stroke-width: 2.2; rx: 4; }
    .fn { font-size: 15px; font-family: 'Courier New', monospace; fill: #111; }
    .fnb { font-size: 15px; font-family: 'Courier New', monospace; fill: #111; font-weight: bold; }
    .ret { font-size: 13px; font-family: 'Courier New', monospace; fill: #555; }
    .title { font-size: 17px; font-weight: bold; fill: #111; text-anchor: middle; }
    .lbl { font-size: 13px; fill: #555; font-style: italic; text-anchor: middle; }
    .note { font-size: 13px; fill: #555; font-style: italic; text-anchor: middle; }
  </style>

  <text x="250" y="24" class="title">Recursive call stack: factorial(5)</text>

  <!-- Column labels -->
  <text x="68" y="52" class="lbl">calls ↓</text>
  <text x="400" y="52" class="lbl">returns ↑</text>

  <!-- Stack frames -->
  <g transform="translate(30,64)">
    <rect class="frame" x="0" y="0" width="200" height="32"/>
    <text x="10" y="22" class="fn">factorial(5)</text>
    <text x="280" y="22" class="ret">5 * 24 → <tspan font-weight="bold">120</tspan></text>

    <rect class="frame" x="0" y="48" width="200" height="32"/>
    <text x="10" y="70" class="fn">factorial(4)</text>
    <text x="280" y="70" class="ret">4 * 6  →  24</text>

    <rect class="frame" x="0" y="96" width="200" height="32"/>
    <text x="10" y="118" class="fn">factorial(3)</text>
    <text x="280" y="118" class="ret">3 * 2  →   6</text>

    <rect class="frame" x="0" y="144" width="200" height="32"/>
    <text x="10" y="166" class="fn">factorial(2)</text>
    <text x="280" y="166" class="ret">2 * 1  →   2</text>

    <rect class="frame" x="0" y="192" width="200" height="32"/>
    <text x="10" y="214" class="fn">factorial(1)</text>
    <text x="280" y="214" class="ret">1 * 1  →   1</text>

    <rect class="base" x="0" y="240" width="200" height="32"/>
    <text x="10" y="262" class="fnb">factorial(0)</text>
    <text x="280" y="262" class="ret">base case → 1</text>
  </g>

  <!-- Down arrows (calls) on left side -->
  <g transform="translate(68,64)">
    <line x1="0" y1="32" x2="0" y2="38" stroke="#111" stroke-width="1.2"/>
    <polygon points="0,48 -5,38 5,38" fill="#111"/>

    <line x1="0" y1="80" x2="0" y2="86" stroke="#111" stroke-width="1.2"/>
    <polygon points="0,96 -5,86 5,86" fill="#111"/>

    <line x1="0" y1="128" x2="0" y2="134" stroke="#111" stroke-width="1.2"/>
    <polygon points="0,144 -5,134 5,134" fill="#111"/>

    <line x1="0" y1="176" x2="0" y2="182" stroke="#111" stroke-width="1.2"/>
    <polygon points="0,192 -5,182 5,182" fill="#111"/>

    <line x1="0" y1="224" x2="0" y2="230" stroke="#111" stroke-width="1.2"/>
    <polygon points="0,240 -5,230 5,230" fill="#111"/>
  </g>

  <!-- Up arrows (returns) on right side -->
  <g transform="translate(400,64)">
    <line x1="0" y1="240" x2="0" y2="234" stroke="#111" stroke-width="1.2"/>
    <polygon points="0,224 -5,234 5,234" fill="#111"/>

    <line x1="0" y1="192" x2="0" y2="186" stroke="#111" stroke-width="1.2"/>
    <polygon points="0,176 -5,186 5,186" fill="#111"/>

    <line x1="0" y1="144" x2="0" y2="138" stroke="#111" stroke-width="1.2"/>
    <polygon points="0,128 -5,138 5,138" fill="#111"/>

    <line x1="0" y1="96" x2="0" y2="90" stroke="#111" stroke-width="1.2"/>
    <polygon points="0,80 -5,90 5,90" fill="#111"/>

    <line x1="0" y1="48" x2="0" y2="42" stroke="#111" stroke-width="1.2"/>
    <polygon points="0,32 -5,42 5,42" fill="#111"/>
  </g>

  <!-- Bottom note -->
  <text x="250" y="420" class="note">No variable changes — each frame holds its own n</text>
</svg>