<svg xmlns="http://www.w3.org/2000/svg" viewBox="0 0 500 480" font-family="'Helvetica Neue', Helvetica, Arial, sans-serif">
  <style>
    .car { fill: none; stroke: #111; stroke-width: 1.3; rx: 4; }
    .cargo { fill: #f4f4f4; stroke: #111; stroke-width: 0.8; stroke-dasharray: 3,2; rx: 3; }
    .wh { fill: none; stroke: #111; stroke-width: 1.1; }
    .coup { stroke: #111; stroke-width: 1.8; }
    .ct { font-size: 16px; font-family: 'Courier New', monospace; fill: #111; text-anchor: middle; font-weight: bold; }
    .nl { font-size: 13px; font-family: 'Courier New', monospace; fill: #666; text-anchor: middle; }
    .cd { font-size: 14px; font-family: 'Courier New', monospace; fill: #111; }
    .cdb { font-size: 14px; font-weight: bold; fill: #111; }
    .dm { font-size: 13px; font-family: 'Courier New', monospace; fill: #777; }
    .ghost { fill: none; stroke: #bbb; stroke-width: 1; stroke-dasharray: 4,3; rx: 4; }
    .nt { font-size: 13px; fill: #888; font-style: italic; }
  </style>

  <!-- === ROW 1: full list === -->
  <text x="20" y="22" class="cd" font-weight="bold">x &lt;- list(a = 1, b = "hi", c = TRUE)</text>

  <!-- Carriage 1 -->
  <g transform="translate(40,40)">
    <text x="45" y="-4" class="nl">$a</text>
    <rect class="car" x="0" y="0" width="90" height="62"/>
    <rect class="cargo" x="10" y="8" width="70" height="46"/>
    <text x="45" y="38" class="ct">1</text>
    <circle class="wh" cx="20" cy="70" r="7"/>
    <circle class="wh" cx="70" cy="70" r="7"/>
  </g>
  <!-- coupler connects at box edge -->
  <line class="coup" x1="130" y1="71" x2="152" y2="71"/>
  <!-- Carriage 2 -->
  <g transform="translate(152,40)">
    <text x="45" y="-4" class="nl">$b</text>
    <rect class="car" x="0" y="0" width="90" height="62"/>
    <rect class="cargo" x="10" y="8" width="70" height="46"/>
    <text x="45" y="38" class="ct">"hi"</text>
    <circle class="wh" cx="20" cy="70" r="7"/>
    <circle class="wh" cx="70" cy="70" r="7"/>
  </g>
  <!-- coupler -->
  <line class="coup" x1="242" y1="71" x2="264" y2="71"/>
  <!-- Carriage 3 -->
  <g transform="translate(264,40)">
    <text x="45" y="-4" class="nl">$c</text>
    <rect class="car" x="0" y="0" width="90" height="62"/>
    <rect class="cargo" x="10" y="8" width="70" height="46"/>
    <text x="45" y="38" class="ct">TRUE</text>
    <circle class="wh" cx="20" cy="70" r="7"/>
    <circle class="wh" cx="70" cy="70" r="7"/>
  </g>

  <!-- divider -->
  <line x1="20" y1="130" x2="480" y2="130" stroke="#ddd" stroke-width="1"/>

  <!-- === ROW 2: x[1] === -->
  <text x="20" y="155" class="cd">x[1]</text>
  <text x="72" y="155" class="cdb">→ returns the carriage (still a list)</text>

  <g transform="translate(40,170)">
    <text x="45" y="-4" class="nl">$a</text>
    <rect class="car" x="0" y="0" width="90" height="62" stroke-width="2"/>
    <rect class="cargo" x="10" y="8" width="70" height="46"/>
    <text x="45" y="38" class="ct">1</text>
    <circle class="wh" cx="20" cy="70" r="7"/>
    <circle class="wh" cx="70" cy="70" r="7"/>
  </g>

  <text x="170" y="206" class="dm">typeof(x[1])  →  "list"</text>

  <!-- divider -->
  <line x1="20" y1="270" x2="480" y2="270" stroke="#ddd" stroke-width="1"/>

  <!-- === ROW 3: x[[1]] === -->
  <text x="20" y="295" class="cd">x[[1]]</text>
  <text x="84" y="295" class="cdb">→ pulls out the cargo (the element)</text>

  <!-- ghost carriage -->
  <rect class="ghost" x="40" y="315" width="90" height="62"/>

  <!-- arrow: starts at ghost right edge x=130, ends at extracted box left edge x=195 -->
  <line x1="130" y1="346" x2="185" y2="346" stroke="#111" stroke-width="1.2"/>
  <polygon points="195,346 185,341 185,351" fill="#111"/>

  <!-- extracted element -->
  <rect x="195" y="322" width="56" height="48" rx="4" fill="#f4f4f4" stroke="#111" stroke-width="1.8"/>
  <text x="223" y="352" class="ct" font-size="18px">1</text>

  <text x="280" y="352" class="dm">typeof(x[[1]])  →  "double"</text>

  <!-- bottom note -->
  <text x="250" y="420" text-anchor="middle" class="nt">x$a is shorthand for x[["a"]]</text>
</svg>